<?xml version="1.0" encoding="UTF-8" standalone="no"?>
<!-- Created with Inkscape (http://www.inkscape.org/) -->

<svg
   width="70.372856mm"
   height="78.247414mm"
   viewBox="0 0 70.372856 78.247414"
   version="1.1"
   id="svg5"
   xml:space="preserve"
   inkscape:export-filename="logo.svg"
   inkscape:export-xdpi="96"
   inkscape:export-ydpi="96"
   xmlns:inkscape="http://www.inkscape.org/namespaces/inkscape"
   xmlns:sodipodi="http://sodipodi.sourceforge.net/DTD/sodipodi-0.dtd"
   xmlns="http://www.w3.org/2000/svg"
   xmlns:svg="http://www.w3.org/2000/svg"><sodipodi:namedview
     id="namedview7"
     pagecolor="#ffffff"
     bordercolor="#000000"
     borderopacity="0.25"
     inkscape:showpageshadow="2"
     inkscape:pageopacity="0.0"
     inkscape:pagecheckerboard="0"
     inkscape:deskcolor="#d1d1d1"
     inkscape:document-units="mm"
     showgrid="false" /><defs
     id="defs2" /><g
     inkscape:label="Capa 1"
     inkscape:groupmode="layer"
     id="layer1"
     transform="translate(-94.286936,-53.24227)"><path
       style="opacity:1;fill:#ed1b23;fill-opacity:1;stroke:none;stroke-width:0.1"
       d="m 94.407216,53.242268 h 70.252574 v 50.860822 c 0,0 -2.55154,27.3866 -36.06185,27.3866 -33.510313,0 -34.311005,-26.62364 -34.311005,-26.62364 z"
       id="path179"
       sodipodi:nodetypes="cccscc" /><path
       style="opacity:1;fill:#e6e6e6;fill-opacity:1;stroke:none;stroke-width:0.0877182"
       d="m 98.713975,58.047369 h 61.624285 v 44.614191 c 0,0 -2.23817,24.02303 -31.6328,24.02303 -29.394641,0 -30.096994,-23.35378 -30.096994,-23.35378 z"
       id="path1243"
       sodipodi:nodetypes="cccscc" /><path
       style="opacity:1;fill:#0f62ac;fill-opacity:1;stroke:none;stroke-width:0.0815773"
       d="m 100.86735,60.44992 h 57.31014 v 41.49088 c 0,0 -2.08148,22.34124 -29.41827,22.34124 -27.33681,0 -27.98999,-21.71885 -27.98999,-21.71885 z"
       id="path1998"
       sodipodi:nodetypes="cccscc" /><path
       style="opacity:1;fill:#e6e6e6;fill-opacity:1;stroke:none;stroke-width:0.1"
       d="m 101.9768,108.35567 c 0,0 7.14433,-0.85052 10.37629,-4.59278 3.23196,-3.74227 8.25,-14.798973 8.25,-14.798973 0,0 -7.22938,0.59536 -9.95103,2.551546 -2.72165,1.956187 -3.69974,2.976804 -3.18943,3.572164 0.5103,0.595362 2.59407,2.296392 2.59407,2.296392 l -5.95361,3.572171 c 0,0 -3.40206,-2.679129 0.63789,-6.761602 4.23363,-4.278202 6.33634,-5.400774 12.5451,-7.612114 6.20876,-2.21134 7.56959,-2.551547 7.56959,-2.551547 l 11.48196,14.118556 5.86855,-14.118556 c 0,0 1.76258,-3.504079 4.52383,-6.486809 2.16942,-2.34343 5.02854,-4.251116 7.63854,-4.654943 5.89103,-0.911479 4.09572,-0.193802 4.15338,-0.05926 l -3.15402,2.823431 c 0,0 -6.0174,-1.658505 -8.56894,5.570875 -2.55155,7.229382 -7.9098,18.626291 -7.9098,18.626291 0,0 6.49651,4.052848 11.26934,1.828618 4.38015,-2.041249 8.20747,-5.826041 8.20747,-5.826041 l -0.085,4.082473 c 0,0 -8.50516,5.188148 -14.79897,4.847948 -6.29382,-0.34021 -6.63402,-0.34021 -6.63402,-0.34021 0,0 -2.29639,9.18556 -7.9098,13.43814 -5.6134,4.25258 -10.12113,5.78351 -10.12113,5.78351 l -1.36083,-0.42526 2.89176,-3.99742 c 0,0 6.97422,0.42525 9.61082,-5.86856 2.6366,-6.29381 4.08248,-9.44072 4.08248,-9.44072 0,0 -5.01804,-1.44588 -8.16495,-7.569594 -3.14691,-6.12371 -3.23196,-6.463916 -3.23196,-6.463916 0,0 -2.21134,8.760309 -5.4433,12.07732 -3.23196,3.31701 -5.46854,6.70462 -14.0335,8.93041 -0.89222,0.23186 -1.19073,-2.55154 -1.19073,-2.55154 z"
       id="path3506"
       sodipodi:nodetypes="cscssccsscccssccscsccscscccscscsscc" /><path
       style="opacity:1;fill:#05a155;fill-opacity:1;stroke:none;stroke-width:0.171819"
       d="m 440.03794,462.35539 c -17.40431,-6.16218 -31.94067,-16.41727 -41.59026,-29.34104 -2.62395,-3.51426 -8.39612,-12.80844 -8.39612,-13.51918 0,-0.19187 0.32314,-0.34886 0.71809,-0.34886 1.29585,0 15.3343,-4.88274 19.28874,-6.70886 7.60415,-3.51151 14.77549,-8.44141 21.44534,-14.7425 5.54217,-5.23576 13.54361,-14.0319 15.7831,-17.35068 2.81006,-4.16434 6.62574,-11.77844 9.26006,-18.47826 1.90194,-4.83716 6.35645,-18.1363 6.77597,-20.22994 0.11838,-0.59078 2.48397,3.62847 6.7544,12.04704 7.15478,14.10471 10.04862,18.86939 14.69845,24.20087 5.08496,5.83039 13.82081,12.25773 19.3749,14.25496 l 2.13049,0.76611 -3.14217,7.09711 c -1.72818,3.90341 -5.40651,12.40448 -8.17405,18.89127 -2.76753,6.48679 -5.71862,12.9659 -6.55797,14.39802 -5.62599,9.59929 -16.96379,16.03492 -30.06042,17.06307 l -3.76004,0.29518 -3.48939,4.8192 c -1.91916,2.65057 -4.12312,5.663 -4.89769,6.6943 l -1.40829,1.87509 z"
       id="path3579"
       transform="scale(0.26458333)" /><path
       style="opacity:1;fill:#05a155;fill-opacity:1;stroke:none;stroke-width:0.171819"
       d="m 475.19587,469.13133 c -8.04623,-0.54086 -21.532,-2.50069 -21.47498,-3.12086 0.0135,-0.1469 2.6073,-1.49452 5.76398,-2.99472 10.0555,-4.77883 23.25836,-13.17964 30.72221,-19.54815 9.98392,-8.51874 20.07923,-25.64867 25.78687,-43.75567 1.45013,-4.60042 1.48684,-4.65967 2.88545,-4.65682 0.77916,0.002 6.9401,0.3163 13.691,0.69937 13.08117,0.74225 16.32701,0.636 23.86679,-0.7813 9.4309,-1.77278 25.0178,-7.75392 36.50608,-14.00843 l 4.99862,-2.72137 -0.27443,4.88123 c -0.78646,13.98848 -8.59113,33.28611 -19.02163,47.03239 -3.60329,4.74875 -10.50109,11.90211 -14.93495,15.4883 -7.79087,6.30138 -18.46247,12.31678 -28.38323,15.99916 -16.45095,6.10625 -38.96642,8.9096 -60.13178,7.48687 z"
       id="path6173"
       transform="scale(0.26458333)" /><path
       style="opacity:1;fill:#ed3237;fill-opacity:1;stroke:none;stroke-width:0.171819"
       d="m 546.66317,385.66583 c -1.75023,-0.37111 -5.02339,-1.28698 -7.27369,-2.03526 -4.72902,-1.57251 -13.86547,-5.79836 -13.86547,-6.41315 0,-0.22966 2.47901,-5.87455 5.5089,-12.54419 9.38969,-20.6693 16.42663,-37.37923 22.49205,-53.40959 4.03246,-10.65746 5.59034,-13.45338 9.95191,-17.86066 5.8167,-5.87767 12.1642,-8.29933 20.23665,-7.72055 l 3.86415,0.27705 5.11431,-4.57458 5.11431,-4.57457 v 42.95742 42.95742 l -4.4324,3.80515 c -11.22235,9.63419 -23.68255,17.40621 -30.78139,19.19981 -3.45033,0.87177 -11.67123,0.83859 -15.92933,-0.0643 z"
       id="path6901"
       transform="scale(0.26458333)" /><circle
       style="opacity:1;fill:#e6e6e6;fill-opacity:1;stroke:none;stroke-width:0.1"
       id="path9547"
       cx="118.98803"
       cy="78.483383"
       r="3.9993448" /></g></svg>
